<svg xmlns="http://www.w3.org/2000/svg" width="913" height="913" viewBox="0 0 913 913">
  <defs>
    <filter id="a" x="-30%" y="-30%" width="160%" height="160%">
      <feDropShadow dx="0" dy="4" stdDeviation="4" flood-color="#000" flood-opacity=".18"/>
    </filter>
  </defs>
  <rect width="913" height="913" rx="110" ry="110" fill="#165989"/>
  <path d="M167.1 203.4 241.5 459m-103.2 81.6L241.5 459m0 0 70.8 249.6m0 0 76.8-199.2m0 0 67.2-177.6m0 0 69.6 184.8m0 0 98.4-204m-98.4 204 73.2 192m0 0 72-249.6m0 0 73.2-255.6M671.1 459l102-63.6" fill="none" stroke="#fff" stroke-width="20" stroke-linecap="round" stroke-linejoin="round"/>
  <g filter="url(#a)">
    <g fill="#fff" stroke="#165989" stroke-width="10">
      <circle cx="525.9" cy="516.6" r="36"/>
      <circle cx="744.3" cy="203.4" r="36"/>
      <circle cx="241.5" cy="459" r="36"/>
      <circle cx="389.1" cy="509.4" r="36"/>
      <circle cx="599.1" cy="708.6" r="36"/>
      <circle cx="624.3" cy="312.6" r="36"/>
      <circle cx="312.3" cy="708.6" r="36"/>
      <circle cx="167.1" cy="203.4" r="36"/>
      <circle cx="671.1" cy="459" r="36"/>
      <circle cx="456.3" cy="331.8" r="36"/>
      <circle cx="773.1" cy="395.4" r="36"/>
      <circle cx="138.3" cy="540.6" r="36"/>
    </g>
  </g>
</svg>
