<svg xmlns="http://www.w3.org/2000/svg" viewBox="-0.03 52.33 123.8 28.48">
  <path d="m28.848 52.358-2.352 6.336h7.882v22.114h6.347V58.694h6.333l2.352-6.336zm48.619 0-2.352 6.336h7.882v22.114h6.347V58.694h6.333l2.352-6.336zm-49.565.017H10.545v.002l-2.536.006c-2.174 0-4.042 1.16-5.55 2.68s-2.462 3.202-2.462 5.393v1.21c.001 2.19.953 3.872 2.461 5.391s3.377 2.68 5.551 2.68l2.392.006v.002h8.94a2.43 2.43 0 0 1 2.424 2.355 2.43 2.43 0 0 1-2.423 2.355H2.448l-2.35 6.33h17.32v-.001l2.614-.006c2.174 0 4.042-1.16 5.55-2.68s2.461-3.201 2.462-5.392v-1.21c0-2.19-.953-3.873-2.461-5.393s-3.377-2.68-5.551-2.68l-2.352-.006v-.002H8.7a2.43 2.43 0 0 1-2.425-2.355A2.43 2.43 0 0 1 8.7 58.705h16.853zm22.362.008-2.349 6.33h18.476a2.427 2.427 0 0 1 2.42 2.28h.018-.024v2.43l-15.31.007c-2.175 0-4.042 1.16-5.55 2.68-3.19 3.573-3.341 8.564 0 11.994 1.508 1.52 3.375 2.68 5.55 2.68l21.633.013-.037-20.333c0-2.191-.952-3.873-2.46-5.393-1.51-1.52-3.377-2.68-5.551-2.68zm48.62 0-2.35 6.33h18.476a2.427 2.427 0 0 1 2.42 2.28h.017-.024v2.43l-15.31.007c-2.174 0-4.042 1.16-5.55 2.68-3.189 3.573-3.34 8.564 0 11.994 1.508 1.52 3.376 2.68 5.55 2.68l21.633.013-.036-20.333c0-2.191-.953-3.873-2.461-5.393s-3.376-2.68-5.55-2.68zm-44.701 17.37h14.621v4.686l-14.622.024a2.43 2.43 0 0 1-2.423-2.355 2.43 2.43 0 0 1 2.423-2.355m48.619 0h14.621v4.686l-14.621.024a2.43 2.43 0 0 1-2.424-2.355 2.43 2.43 0 0 1 2.424-2.355" fill="#195f92"/>
</svg>
